<svg width="36" height="36" viewBox="0 0 36 36" fill="none" xmlns="http://www.w3.org/2000/svg">
<circle cx="18" cy="18" r="18" fill="#FBE5E5"/>
<path fill-rule="evenodd" clip-rule="evenodd" d="M20.1785 18.3045C20.0527 17.9484 19.8195 17.6401 19.5111 17.422C19.2027 17.204 18.8342 17.0869 18.4565 17.087V16.6305H17.5435V17.087C17.0592 17.087 16.5947 17.2794 16.2523 17.6218C15.9098 17.9643 15.7174 18.4288 15.7174 18.9131C15.7174 19.3974 15.9098 19.8619 16.2523 20.2043C16.5947 20.5468 17.0592 20.7392 17.5435 20.7392V22.5652C17.1463 22.5652 16.808 22.3119 16.682 21.9567C16.6633 21.8986 16.6332 21.8448 16.5933 21.7986C16.5535 21.7523 16.5048 21.7145 16.4501 21.6874C16.3954 21.6603 16.3358 21.6445 16.2749 21.6408C16.214 21.6371 16.1529 21.6457 16.0954 21.6661C16.0378 21.6864 15.9849 21.7181 15.9398 21.7592C15.8947 21.8003 15.8583 21.8501 15.8328 21.9055C15.8073 21.961 15.7931 22.021 15.7912 22.082C15.7892 22.143 15.7995 22.2038 15.8215 22.2607C15.9474 22.6169 16.1806 22.9252 16.489 23.1432C16.7974 23.3613 17.1658 23.4783 17.5435 23.4783V23.9348H18.4565V23.4783C18.9408 23.4783 19.4053 23.2859 19.7478 22.9434C20.0902 22.601 20.2826 22.1365 20.2826 21.6522C20.2826 21.1679 20.0902 20.7034 19.7478 20.361C19.4053 20.0185 18.9408 19.8261 18.4565 19.8261V18C18.6454 18 18.8296 18.0585 18.9838 18.1675C19.1379 18.2764 19.2546 18.4306 19.3175 18.6086C19.3579 18.7227 19.4419 18.8162 19.5511 18.8685C19.6052 18.8943 19.6639 18.9093 19.7237 18.9125C19.7836 18.9156 19.8435 18.907 19.9001 18.887C19.9566 18.8671 20.0086 18.8362 20.0532 18.7961C20.0978 18.756 20.1341 18.7076 20.1599 18.6535C20.1858 18.5994 20.2008 18.5407 20.2039 18.4808C20.2071 18.421 20.1985 18.3611 20.1785 18.3045ZM17.5435 18C17.3013 18 17.0691 18.0962 16.8979 18.2675C16.7266 18.4387 16.6305 18.6709 16.6305 18.9131C16.6305 19.1552 16.7266 19.3875 16.8979 19.5587C17.0691 19.7299 17.3013 19.8261 17.5435 19.8261V18ZM18.4565 22.5652C18.6987 22.5652 18.9309 22.4691 19.1022 22.2978C19.2734 22.1266 19.3696 21.8944 19.3696 21.6522C19.3696 21.41 19.2734 21.1778 19.1022 21.0066C18.9309 20.8354 18.6987 20.7392 18.4565 20.7392V22.5652Z" fill="#E34F4F"/>
<path fill-rule="evenodd" clip-rule="evenodd" d="M13.0481 10.9792C14.1684 10.4309 16.0064 9.78262 18.0178 9.78262C19.9872 9.78262 21.7768 10.4039 22.8912 10.9449L22.9542 10.9755C23.2902 11.1417 23.5613 11.2987 23.7522 11.4261L22.0658 13.8913C25.9535 17.8658 28.9565 26.216 18.0178 26.216C7.07907 26.216 10.0013 18.0174 13.9228 13.8913L12.2474 11.4261C12.3765 11.3416 12.5404 11.2435 12.7358 11.1394C12.8326 11.0874 12.9367 11.0336 13.0481 10.9792ZM20.982 13.8589L22.3319 11.8854C21.0765 11.9758 19.5827 12.2707 18.1447 12.687C17.1175 12.9838 15.9762 12.9386 14.9194 12.7436C14.653 12.6943 14.3885 12.6355 14.1264 12.5674L15.0029 13.858C16.8815 14.5268 19.1029 14.5268 20.982 13.8589ZM14.4756 14.6354C16.6738 15.4846 19.3157 15.4846 21.5138 14.6345C22.4311 15.602 23.1987 16.7011 23.791 17.8955C24.4082 19.1546 24.7442 20.4132 24.6894 21.4979C24.6364 22.5447 24.2247 23.439 23.2842 24.1037C22.3041 24.7963 20.6556 25.303 18.0173 25.303C15.3764 25.303 13.7201 24.8049 12.7308 24.1201C11.7835 23.4641 11.3676 22.5817 11.3087 21.549C11.2471 20.4762 11.5758 19.2239 12.1907 17.9562C12.7774 16.7473 13.5959 15.5836 14.4756 14.6354ZM13.9506 11.5704C14.3159 11.679 14.6975 11.7735 15.0846 11.8452C16.0662 12.026 17.0504 12.0524 17.8904 11.8091C18.8693 11.5238 19.8649 11.2996 20.8715 11.1376C20.0315 10.8847 19.0491 10.6957 18.0173 10.6957C16.4446 10.6957 14.9778 11.1344 13.9506 11.5704Z" fill="#E34F4F"/>
</svg>
