<svg width="36" height="36" viewBox="0 0 36 36" fill="none" xmlns="http://www.w3.org/2000/svg">
<circle cx="18" cy="18" r="18" fill="#EAF0F6"/>
<path d="M20.0543 13.5489C20.2434 13.5489 20.3967 13.3956 20.3967 13.2065C20.3967 13.0174 20.2434 12.8641 20.0543 12.8641C19.8652 12.8641 19.7119 13.0174 19.7119 13.2065C19.7119 13.3956 19.8652 13.5489 20.0543 13.5489Z" fill="#3E6B8E" stroke="#3E6B8E" stroke-width="0.684783"/>
<path d="M13.2065 12.5218C13.0249 12.5218 12.8507 12.5939 12.7223 12.7223C12.5939 12.8507 12.5217 13.0249 12.5217 13.2065C12.5217 13.3882 12.5939 13.5623 12.7223 13.6907C12.8507 13.8192 13.0249 13.8913 13.2065 13.8913V12.5218ZM15.9456 13.8913C16.1273 13.8913 16.3014 13.8192 16.4299 13.6907C16.5583 13.5623 16.6304 13.3882 16.6304 13.2065C16.6304 13.0249 16.5583 12.8507 16.4299 12.7223C16.3014 12.5939 16.1273 12.5218 15.9456 12.5218V13.8913ZM13.2065 16.6304C13.0249 16.6304 12.8507 16.7026 12.7223 16.831C12.5939 16.9594 12.5217 17.1336 12.5217 17.3152C12.5217 17.4968 12.5939 17.671 12.7223 17.7994C12.8507 17.9279 13.0249 18 13.2065 18V16.6304ZM20.0543 18C20.2359 18 20.4101 17.9279 20.5385 17.7994C20.667 17.671 20.7391 17.4968 20.7391 17.3152C20.7391 17.1336 20.667 16.9594 20.5385 16.831C20.4101 16.7026 20.2359 16.6304 20.0543 16.6304V18ZM13.2065 19.3696C13.0249 19.3696 12.8507 19.4417 12.7223 19.5701C12.5939 19.6986 12.5217 19.8727 12.5217 20.0544C12.5217 20.236 12.5939 20.4102 12.7223 20.5386C12.8507 20.667 13.0249 20.7391 13.2065 20.7391V19.3696ZM18.6848 20.7391C18.8664 20.7391 19.0406 20.667 19.169 20.5386C19.2974 20.4102 19.3695 20.236 19.3695 20.0544C19.3695 19.8727 19.2974 19.6986 19.169 19.5701C19.0406 19.4417 18.8664 19.3696 18.6848 19.3696V20.7391ZM24.8478 13.8913V25.5326H26.2174V13.8913H24.8478ZM24.163 26.2174H14.5761V27.587H24.163V26.2174ZM14.5761 26.2174C14.3945 26.2174 14.2203 26.1453 14.0919 26.0168C13.9634 25.8884 13.8913 25.7142 13.8913 25.5326H12.5217C12.5217 26.0775 12.7382 26.6 13.1234 26.9853C13.5087 27.3705 14.0312 27.587 14.5761 27.587V26.2174ZM24.8478 25.5326C24.8478 25.7142 24.7757 25.8884 24.6472 26.0168C24.5188 26.1453 24.3446 26.2174 24.163 26.2174V27.587C24.7079 27.587 25.2304 27.3705 25.6157 26.9853C26.0009 26.6 26.2174 26.0775 26.2174 25.5326H24.8478ZM24.163 13.2065C24.3446 13.2065 24.5188 13.2787 24.6472 13.4071C24.7757 13.5355 24.8478 13.7097 24.8478 13.8913H26.2174C26.2174 13.3465 26.0009 12.8239 25.6157 12.4387C25.2304 12.0534 24.7079 11.837 24.163 11.837V13.2065ZM13.8913 25.5326V24.1631H12.5217V25.5326H13.8913ZM24.163 11.837H22.7935V13.2065H24.163V11.837ZM13.2065 13.8913H15.9456V12.5218H13.2065V13.8913ZM13.2065 18H20.0543V16.6304H13.2065V18ZM13.2065 20.7391H18.6848V19.3696H13.2065V20.7391ZM11.8369 10.4674H21.4239V9.09784H11.8369V10.4674ZM22.1087 11.1522V22.7935H23.4782V11.1522H22.1087ZM21.4239 23.4783H11.8369V24.8478H21.4239V23.4783ZM11.1522 22.7935V11.1522H9.78259V22.7935H11.1522ZM11.8369 23.4783C11.6553 23.4783 11.4811 23.4061 11.3527 23.2777C11.2243 23.1493 11.1522 22.9751 11.1522 22.7935H9.78259C9.78259 23.3383 9.99903 23.8609 10.3843 24.2461C10.7696 24.6314 11.2921 24.8478 11.8369 24.8478V23.4783ZM22.1087 22.7935C22.1087 22.9751 22.0365 23.1493 21.9081 23.2777C21.7797 23.4061 21.6055 23.4783 21.4239 23.4783V24.8478C21.9687 24.8478 22.4913 24.6314 22.8765 24.2461C23.2618 23.8609 23.4782 23.3383 23.4782 22.7935H22.1087ZM21.4239 10.4674C21.6055 10.4674 21.7797 10.5396 21.9081 10.668C22.0365 10.7964 22.1087 10.9706 22.1087 11.1522H23.4782C23.4782 10.6073 23.2618 10.0848 22.8765 9.69954C22.4913 9.31428 21.9687 9.09784 21.4239 9.09784V10.4674ZM11.8369 9.09784C11.2921 9.09784 10.7696 9.31428 10.3843 9.69954C9.99903 10.0848 9.78259 10.6073 9.78259 11.1522H11.1522C11.1522 10.9706 11.2243 10.7964 11.3527 10.668C11.4811 10.5396 11.6553 10.4674 11.8369 10.4674V9.09784Z" fill="#3E6B8E"/>
</svg>
